<?xml version="1.0" encoding="UTF-8"?>
<!DOCTYPE svg PUBLIC "-//W3C//DTD SVG 1.1//EN" "http://www.w3.org/Graphics/SVG/1.1/DTD/svg11.dtd">
<!-- Creator: CorelDRAW 2020 (64-Bit) -->
<svg xmlns="http://www.w3.org/2000/svg" xml:space="preserve" width="100%" height="100%" version="1.1" style="shape-rendering:geometricPrecision; text-rendering:geometricPrecision; image-rendering:optimizeQuality; fill-rule:evenodd; clip-rule:evenodd"
viewBox="0 0 10000 10000"
 xmlns:xlink="http://www.w3.org/1999/xlink"
 xmlns:xodm="http://www.corel.com/coreldraw/odm/2003">
 <defs>
  <style type="text/css">
   <![CDATA[
    .fil0 {fill:none}
    .fil1 {fill:orange}
    .fil2 {fill:white}
   ]]>
  </style>
 </defs>
 <g id="Alert">
  <metadata id="CorelCorpID_0Corel-Layer"/>
  <rect id="Background" class="fil0" x="-0.62" y="0.6" width="10000.01" height="10000"/>
  <path class="fil1" d="M6011.55 8563.66l-2016.13 1.22c-41.63,484.21 486.79,937.71 1008.22,937.49 524.63,-0.17 1041.65,-447.99 1007.91,-938.71zm-1423.41 -7238.35c68.47,-598.03 751.96,-600 831.17,-16.91l-831.17 16.91zm-405.65 99.36c-1324.33,442.64 -1520.02,1642.63 -1610.21,3292.09 -63.86,1167.15 -451.79,1618.77 -1226.74,2409.65 -395.61,403.78 -261.08,171.58 -291.18,1015.79l7894.26 -3.7c-34.9,-1257.95 98.54,-392.97 -841.98,-1624.65 -453.18,-593.56 -620.79,-831.31 -673.51,-1797.47 -87.76,-1609.61 -289.58,-2872.35 -1612.75,-3292.92 -47.25,-299.01 -16.27,-416.9 -202.45,-634.91 -134.26,-157.19 -314.94,-289.29 -614.39,-289.68 -737.52,-0.94 -765.42,665.5 -821.05,925.8z"/>
  <path class="fil2" d="M3942.7 9575.6c-265.05,-244.56 -441.11,-575.95 -447.63,-936.3l-2957.35 1.38 18.4 -516.07c7.35,-206.3 4.45,-342.09 2.39,-438.75 -3.48,-163.02 -5.42,-254.84 28.39,-372.82 54.41,-189.92 127.95,-262.71 296.13,-429.26 30.08,-29.77 65.31,-64.65 106.91,-107.12 361.69,-369.12 631.43,-656.18 801.87,-958.21 163,-288.86 254.86,-626.94 282.22,-1127.08 47.72,-872.82 125.55,-1632.16 377.48,-2258.83 246.27,-612.6 640.49,-1080.44 1290.33,-1371.08 93.56,-452.74 318.17,-1062.03 1261.7,-1060.83 240.66,0.3 436.8,55.25 601.66,142.7 164.04,87.02 288.62,200.06 391.79,320.87 204.8,239.79 252.08,394.99 280.89,601.02 640.06,286.24 1030.73,761.31 1275.23,1375.15 253.09,635.44 331.9,1400.08 378.26,2250.61 23.02,421.94 67.13,675.11 149.46,874.34 80.1,193.83 218.95,379.15 422.45,645.68 323.51,423.67 495.74,564.04 593.81,643.97 110.62,90.17 177.71,144.85 247.86,280.2 87.44,168.75 89.49,301.99 94.65,640.34 1.33,87.27 2.98,194.65 7.26,349.32l14.18 511.68 -2950.05 1.38c-8.78,363.61 -184.88,696.44 -450.42,941.32 -255.07,235.21 -601.35,394.54 -959.66,419.18 -21.15,1.44 -53.46,2.2 -97.27,2.22 -53.91,0.02 -93.88,-1.15 -120.44,-3.42 -349.44,-30.04 -689.44,-189.94 -940.5,-421.59zm2068.84 -1011.94l-2016.12 1.22c-41.63,484.21 486.79,937.71 1008.22,937.49 524.64,-0.16 1041.65,-447.99 1007.9,-938.71zm-1423.4 -7238.35c68.48,-598.03 751.95,-600 831.17,-16.91l-831.17 16.91zm-405.65 99.36c-1324.34,442.64 -1520.02,1642.64 -1610.22,3292.1 -63.85,1167.13 -451.78,1618.76 -1226.73,2409.64 -395.61,403.78 -261.08,171.59 -291.18,1015.79l7894.26 -3.7c-34.89,-1257.95 98.54,-392.97 -841.98,-1624.65 -453.17,-593.56 -620.79,-831.3 -673.51,-1797.47 -87.77,-1609.61 -289.57,-2872.34 -1612.75,-3292.92 -47.25,-299.01 -16.27,-416.91 -202.45,-634.91 -134.26,-157.19 -314.94,-289.3 -614.39,-289.68 -737.52,-0.94 -765.43,665.49 -821.05,925.8z"/>
 </g>
</svg>
